<svg id="Capa_1" enable-background="new 0 0 512 512" height="512" viewBox="0 0 512 512" width="512" xmlns="http://www.w3.org/2000/svg"><g><g clip-rule="evenodd" fill-rule="evenodd"><path d="m187.997 162.712 156.898 156.927c4.224 4.224 4.791 3.827 3.855 9.496-3.231 19.361 2.636 39.913 17.547 54.823 24.577 24.576 64.375 24.576 88.952 0 24.549-24.548 24.549-64.375 0-88.923-14.882-14.882-35.376-20.751-54.681-17.604-5.783.964-5.216.681-9.496-3.628l-156.927-156.899c-4.224-4.252-5.216-4.195-3.572-9.779 7.824-26.363 1.333-56.098-19.503-76.933-22.337-22.337-54.964-28.205-82.659-17.547-.085.028-.17.057-.227.085-2.863 1.106-2.863 3.543-1.049 5.357l34.555 34.527c2.324 2.324 3.033 4.904 2.154 8.107l-5.557 20.353c-.737 2.75-2.693 5.074-5.953 5.953l-20.324 5.556c-3.26.879-5.896.086-8.135-2.154l-34.525-34.556c-1.927-2.041-4.394-1.389-5.386 1.19-10.715 27.723-4.875 60.378 17.49 82.744 20.863 20.863 50.627 27.327 77.018 19.474 5.527-1.643 5.301-.793 9.525 3.431zm205.484 194.09c9.553 9.553 25.03 9.553 34.583 0s9.553-25.059 0-34.583c-9.553-9.553-25.03-9.553-34.583 0-9.552 9.524-9.552 25.029 0 34.583z" fill="#8ac7fd"/><path d="m398.64 401.221c19.843 3.884 41.216-1.871 56.608-17.263 24.549-24.548 24.549-64.375 0-88.923-14.882-14.882-35.376-20.751-54.681-17.604-.794.142-1.503.255-2.098.34 11.906 2.296 23.273 8.05 32.486 17.264 24.576 24.548 24.576 64.375 0 88.923-9.155 9.184-20.466 14.938-32.315 17.263zm-4.167-124.102c-.85-.624-1.786-1.672-3.401-3.316l-156.927-156.899c-4.224-4.252-5.216-4.195-3.572-9.779 7.824-26.363 1.333-56.098-19.503-76.933-18.227-18.227-43.285-25.484-66.926-21.742 15.619 2.466 30.643 9.695 42.662 21.742 20.835 20.835 27.326 50.57 19.502 76.933-1.672 5.584-.652 5.527 3.572 9.779l156.927 156.899c4.28 4.309 3.685 4.592 9.496 3.628 6.01-.964 12.132-1.078 18.17-.312z" fill="#62b5fe"/><path d="m176.072 137.561h216.096v38.084h-216.096z" fill="#c2e3ff" transform="matrix(.707 -.707 .707 .707 -27.518 246.774)"/><path d="m367.913 87.593 6.066 6.066-152.789 152.818-12.132-12.133 152.789-152.817z" fill="#b4d9fc"/><path d="m409.752 10.915 20.041 20.069c2.098 2.098 2.381 5.074.822 7.512l-27.1 42.095c-1.587 2.522-3.884 4.507-7.2 5.612l-22.337 7.455-26.93-26.929 7.456-22.309c1.021-3.09 2.977-5.527 5.613-7.228l42.094-27.071c2.609-1.672 5.5-1.218 7.541.794z" fill="#8ac7fd"/><path d="m409.752 10.915 20.041 20.069c2.098 2.098 2.381 5.074.822 7.512l-27.1 42.095c-1.587 2.522-3.884 4.507-7.2 5.612l-22.337 7.455-6.066-6.066 4.139-1.389c3.316-1.105 5.613-3.09 7.2-5.612l27.099-42.095c1.559-2.438 1.276-5.415-.822-7.512l-14.003-14.003 10.686-6.859c2.609-1.673 5.5-1.219 7.541.793z" fill="#62b5fe"/><path d="m177.196 202.482 61.059 61.03c9.382 9.383 9.382 24.747 0 34.13-9.383 9.382-24.747 9.382-34.13 0l-61.03-61.059c-9.383-9.382-9.383-24.718 0-34.101 9.383-9.382 24.718-9.382 34.101 0z" fill="#89bad5"/><path d="m204.125 297.642-99.185 99.185c-7.399 7.398-19.531 7.398-26.93 0l-34.101-34.1c-7.427-7.398-7.427-19.531 0-26.93l99.185-99.213z" fill="#3291bc"/><path d="m174.078 412.248 74.608-74.609c4.025-4.025 10.602-4.025 14.627 0l74.608 74.609c4.025 4.025 4.025 10.602 0 14.627l-74.608 74.608c-4.025 4.025-10.602 4.025-14.627 0l-74.608-74.608c-4.025-4.026-4.025-10.602 0-14.627z" fill="#df646e"/><path d="m243.868 342.458 4.819-4.819c4.025-4.025 10.602-4.025 14.627 0l74.608 74.609c4.025 4.025 4.025 10.602 0 14.627l-74.608 74.608c-4.025 4.025-10.602 4.025-14.627 0l-4.819-4.819 69.79-69.789c4.025-4.025 4.025-10.602 0-14.627z" fill="#dc4955"/></g><path d="m257.077 221.191 97.938 97.938c2.041 2.041 2.665 4.989 1.843 7.569-1.588 6.689-1.899 13.606-.964 20.381.936 6.832 3.146 13.522 6.633 19.673 2.041 3.6.766 8.163-2.835 10.205-3.572 2.041-8.135.766-10.176-2.806-4.451-7.852-7.257-16.384-8.448-25.086-1.021-7.371-.851-14.854.482-22.196l-95.075-95.075-14.684 14.684 11.764 11.735c6.151 6.18 9.241 14.258 9.241 22.365 0 8.108-3.09 16.215-9.241 22.366s-14.258 9.241-22.366 9.241c-5.698 0-11.395-1.531-16.413-4.592l-94.536 94.536c-5.159 5.188-11.963 7.767-18.766 7.767s-13.606-2.58-18.765-7.767l-34.101-34.101c-5.188-5.159-7.767-11.962-7.767-18.766s2.58-13.607 7.767-18.766l94.508-94.536c-3.033-5.017-4.564-10.715-4.564-16.413 0-8.107 3.09-16.214 9.241-22.365s14.258-9.241 22.365-9.241c8.079 0 16.186 3.09 22.337 9.241l11.764 11.764 14.684-14.684-27.95-27.921c-13.975 4.252-28.857 4.819-43.059 1.672-15.307-3.374-29.877-10.999-41.783-22.905-12.756-12.756-20.608-28.602-23.556-45.156-3.005-16.81-.907-34.356 6.292-50.174.369-.963.936-1.871 1.729-2.636 2.919-2.92 7.653-2.92 10.602 0l38.353 38.353 21.374-5.839 5.811-21.374-38.353-38.325c-3.628-3.657-2.58-9.921 2.183-12.104 13.039-6.038 27.27-8.589 41.33-7.653 13.918.907 27.695 5.272 39.94 13.068 3.458 2.211 4.507 6.831 2.268 10.318-2.211 3.458-6.832 4.479-10.29 2.268-10.035-6.378-21.373-9.95-32.882-10.715-7.938-.539-15.96.284-23.669 2.466l33.137 33.137c2.155 2.154 2.721 5.272 1.729 7.937l-7.937 29.027c-.709 2.693-2.835 4.621-5.33 5.272l-29.594 8.079c-2.693.737-5.414-.085-7.257-1.927l-.028.028-33.135-33.165c-2.863 10.205-3.373 20.948-1.531 31.38 2.438 13.578 8.901 26.618 19.418 37.134 9.808 9.808 21.798 16.101 34.384 18.879 13.039 2.863 26.731 1.984 39.317-2.664 2.835-1.021 5.868-.255 7.88 1.757v-.028l31.21 31.21 12.388-12.387-33.818-33.846c-2.948-2.92-2.948-7.653 0-10.602 2.919-2.92 7.653-2.92 10.602 0l33.818 33.846 12.387-12.416-31.182-31.181c-2.239-2.24-2.778-5.528-1.616-8.249 3.657-10.091 4.904-20.807 3.771-31.323-1.134-10.545-4.621-20.835-10.489-30.047-2.211-3.486-1.19-8.107 2.296-10.318s8.107-1.19 10.318 2.296c7.143 11.225 11.395 23.726 12.756 36.482 1.219 11.338.17 22.848-3.175 33.818l27.921 27.921 75.034-75.005 8.391-25.172c.539-1.644 1.588-3.033 3.033-3.969l50.287-32.315c2.948-1.899 6.86-1.503 9.354.992l26.93 26.929c2.636 2.664 2.891 6.832.737 9.752l-32.06 49.861c-1.077 1.672-2.665 2.749-4.422 3.203l-24.718 8.249-27.553 27.553c-2.92 2.919-7.683 2.919-10.602 0-2.92-2.948-2.92-7.682 0-10.602l23.443-23.472-16.328-16.299c-47.395 47.396-94.791 94.792-142.187 142.187l16.328 16.328 94.735-94.735c2.92-2.919 7.654-2.919 10.602 0 2.92 2.919 2.92 7.682 0 10.602l-23.471 23.471 95.075 95.046c10.488-1.899 21.288-1.417 31.578 1.474 11.31 3.146 21.997 9.156 30.841 18 13.749 13.748 20.608 31.748 20.608 49.776 0 18-6.86 36.029-20.608 49.749-11.31 11.31-25.483 17.943-40.223 19.956-15.024 2.042-30.615-.765-44.193-8.447-3.6-2.04-4.847-6.604-2.806-10.205 2.012-3.6 6.604-4.847 10.176-2.806 10.686 6.038 22.961 8.249 34.81 6.633 11.565-1.559 22.705-6.803 31.634-15.732 10.8-10.8 16.214-24.974 16.214-39.147s-5.414-28.375-16.214-39.175c-7.03-7.002-15.392-11.735-24.236-14.202-9.213-2.58-18.936-2.722-28.234-.426-2.522.624-5.216-.113-7.086-1.956l-97.938-97.938-12.388 12.388 97.939 97.938c2.919 2.92 2.919 7.682 0 10.602-2.92 2.919-7.682 2.919-10.602 0l-97.938-97.938zm-1.332 162.2c2.551-3.231 7.228-3.798 10.488-1.247 3.231 2.579 3.77 7.257 1.219 10.488l-13.947 17.631 19.871 8.788c3.798 1.672 5.499 6.066 3.827 9.864-.34.794-.793 1.503-1.361 2.098l-19.559 24.718c-2.58 3.232-7.257 3.798-10.488 1.248-3.26-2.58-3.798-7.257-1.247-10.488l13.947-17.632-19.871-8.787c-4.422-1.956-5.896-7.625-2.834-11.481zm-27.042-15.166c-2.92 2.948-7.683 2.948-10.602 0-2.948-2.92-2.948-7.653 0-10.602l25.285-25.286c3.487-3.486 8.05-5.216 12.614-5.216s9.127 1.729 12.614 5.216l74.608 74.608c3.486 3.487 5.216 8.051 5.216 12.615s-1.729 9.128-5.216 12.614l-74.608 74.608c-3.487 3.488-8.05 5.218-12.614 5.218s-9.127-1.73-12.614-5.216l-74.608-74.608c-3.486-3.487-5.216-8.05-5.216-12.614s1.73-9.128 5.216-12.615l25.285-25.285c2.948-2.948 7.682-2.948 10.602 0 2.948 2.92 2.948 7.682 0 10.602l-25.285 25.286c-.539.539-.822 1.276-.822 2.013s.283 1.474.822 2.013l74.608 74.608c.539.538 1.276.822 2.013.822s1.474-.284 2.013-.822l74.608-74.608c.539-.539.822-1.276.822-2.013s-.283-1.474-.822-2.013l-74.608-74.609c-.539-.538-1.276-.822-2.013-.822s-1.474.283-2.013.822zm-84.587-82.233c2.948-2.92 7.682-2.92 10.63 0 2.919 2.948 2.919 7.682 0 10.602l-64.291 64.29c-2.948 2.948-7.682 2.948-10.63 0-2.919-2.92-2.919-7.653 0-10.602zm49.408 11.65-50.429-50.429-93.884 93.884c-2.239 2.239-3.373 5.187-3.373 8.164 0 2.948 1.134 5.924 3.373 8.164l34.101 34.101c2.239 2.239 5.187 3.373 8.164 3.373s5.925-1.134 8.164-3.373zm15.902-5.3h.028c3.203 3.231 7.483 4.819 11.735 4.819 4.28 0 8.533-1.587 11.765-4.819 3.231-3.232 4.819-7.484 4.819-11.765 0-4.252-1.587-8.532-4.819-11.735-20.353-20.353-40.706-40.706-61.059-61.059-3.231-3.231-7.483-4.847-11.736-4.847-4.28 0-8.532 1.616-11.764 4.847-3.231 3.231-4.847 7.483-4.847 11.764 0 4.252 1.616 8.533 4.847 11.736zm166.622-207.215 19.984-6.69 27.638-42.973-18.397-18.397-43.001 27.638-6.662 19.984zm22.734 266.374c3.316 3.288 7.653 4.961 11.99 4.961s8.675-1.644 11.991-4.961c3.316-3.316 4.96-7.654 4.96-11.991s-1.644-8.703-4.96-11.991c-3.316-3.316-7.654-4.989-11.991-4.989s-8.674 1.672-11.99 4.989c-3.317 3.288-4.961 7.654-4.961 11.991s1.644 8.675 4.961 11.991zm11.99 19.956c-8.192 0-16.356-3.118-22.592-9.355-6.236-6.236-9.383-14.429-9.383-22.592 0-8.192 3.146-16.356 9.383-22.621 6.236-6.236 14.4-9.354 22.592-9.354 8.165 0 16.356 3.118 22.593 9.354 6.236 6.265 9.354 14.428 9.354 22.621 0 8.164-3.118 16.356-9.354 22.592-6.236 6.237-14.428 9.355-22.593 9.355z"/></g></svg>