<svg height="512" viewBox="0 0 64 64" width="512" xmlns="http://www.w3.org/2000/svg"><g id="Glyph"><path d="m4 52h56v4h-56z"/><path d="m17 24h6v6h-6z"/><path d="m9 43h2v2h-2z"/><path d="m48 12h2v2h-2z"/><path d="m36 8h16v2h-16z"/><path d="m47 58h8v2h-8z"/><path d="m38 12h2v2h-2z"/><path d="m9 58h8v2h-8z"/><path d="m9 23h2v2h-2z"/><path d="m35 20v30h18v-30zm6 28h-2v-2h2zm1-11v-4h-4a1 1 0 0 1 -.874-1.486l5-9a1 1 0 0 1 .874-.514h5a1 1 0 0 1 .857 1.515l-2.09 3.485h3.233a1 1 0 0 1 .789 1.614l-7 9a1 1 0 0 1 -.789.386 1.01 1.01 0 0 1 -.324-.054 1 1 0 0 1 -.676-.946zm3 11h-2v-2h2zm6-1a1 1 0 0 1 -1 1h-3v-2h2v-5h2z"/><path d="m29 20h4v30h-4z"/><path d="m59 16h-54a1 1 0 0 0 -1 1v33h7v-3h-3a1 1 0 0 1 -1-1v-4a1 1 0 0 1 1-1h3v-14h-3a1 1 0 0 1 -1-1v-4a1 1 0 0 1 1-1h3v-2a1 1 0 0 1 1-1h42a1 1 0 0 1 1 1v31h5v-33a1 1 0 0 0 -1-1z"/><path d="m44 32v2.085l3.955-5.085h-2.955a1 1 0 0 1 -.857-1.515l2.09-3.485h-2.644l-3.889 7h3.3a1 1 0 0 1 1 1z"/><path d="m13 20v30h14v-30zm6 20h-4v-2h4zm6 0h-4v-2h4zm0-4h-10v-2h10zm0-5a1 1 0 0 1 -1 1h-8a1 1 0 0 1 -1-1v-8a1 1 0 0 1 1-1h8a1 1 0 0 1 1 1z"/><path d="m58 7v-5h-2v5a1 1 0 0 1 -1 1h-2v2h2a3 3 0 0 0 3-3z"/></g></svg>