<svg id="Capa_1" enable-background="new 0 0 512 512" height="512" viewBox="0 0 512 512" width="512" xmlns="http://www.w3.org/2000/svg"><g><path d="m49.051 111.57c5.54 7.23 16.13 7.89 22.52 1.5l10.11-10.12 114.63 114.63 21.21-21.21-114.63-114.63 10.17-10.17c6.43-6.44 5.69-17.05-1.5-22.51l-60.09-45.97c-5.97-4.57-14.41-4.01-19.72 1.3l-27.35 27.36c-5.32 5.31-5.89 13.74-1.31 19.72z"/><path d="m282.52 374.57c.02-.32.03-.65.03-.99 0-9.65-9.11-24.01-14.47-31.97l73.53-73.53c8.13 5.47 23.31 15.09 32.98 14.41z"/><path d="m484 163.2c-27.41 27.41-67.31 34.7-101.38 21.86l-62.01 62.02-73.53 73.53-62.02 62.01c12.84 34.07 5.55 73.97-21.86 101.38-26.4 26.4-64.39 34.13-97.58 23.19-5.43-1.79-7.01-8.74-2.96-12.78l49.31-49.32-8.09-36.99-36.98-8.07-49.31 49.31c-4.04 4.05-10.99 2.47-12.78-2.96-10.94-33.19-3.22-71.19 23.19-97.58 27.41-27.41 67.32-34.69 101.38-21.86 0 0 189.73-189.73 197.56-197.56-12.83-34.06-5.55-73.97 21.86-101.38 26.39-26.41 64.39-34.13 97.58-23.19 5.43 1.79 7.01 8.74 2.96 12.78l-49.31 49.31 8.07 36.98 36.99 8.09 49.32-49.31c4.04-4.05 10.99-2.47 12.78 2.96 10.94 33.19 3.21 71.18-23.19 97.58z"/><path d="m502.34 402.13-102.48-102.49-100.17 100.19 102.47 102.48c12.91 12.92 33.82 12.92 46.74 0 37.393-37.393 16.06-16.05 53.44-53.43 12.88-12.9 12.88-33.85 0-46.75z"/></g></svg>