<svg id="Capa_1" enable-background="new 0 0 512 512" height="512" viewBox="0 0 512 512" width="512" xmlns="http://www.w3.org/2000/svg"><g><path d="m257.077 221.191 97.938 97.938c2.041 2.041 2.665 4.989 1.843 7.568-1.588 6.69-1.899 13.607-.964 20.382.936 6.831 3.146 13.521 6.633 19.672 2.041 3.6.766 8.164-2.835 10.205-3.572 2.041-8.135.765-10.176-2.807-4.451-7.852-7.257-16.384-8.447-25.086-1.021-7.37-.85-14.854.482-22.196l-95.075-95.075-14.684 14.684 11.764 11.735c6.151 6.18 9.241 14.258 9.241 22.365 0 8.108-3.09 16.215-9.241 22.366s-14.258 9.241-22.366 9.241c-5.698 0-11.395-1.531-16.413-4.592l-94.536 94.537c-5.159 5.188-11.962 7.767-18.766 7.767-6.803 0-13.606-2.58-18.765-7.767l-34.101-34.102c-5.187-5.159-7.767-11.962-7.767-18.765s2.58-13.606 7.767-18.766l94.508-94.536c-3.033-5.017-4.564-10.715-4.564-16.413 0-8.107 3.09-16.214 9.241-22.365s14.258-9.241 22.365-9.241c8.079 0 16.187 3.09 22.337 9.241l11.764 11.764 14.684-14.684-27.95-27.921c-13.975 4.252-28.857 4.819-43.059 1.672-15.307-3.374-29.877-10.999-41.783-22.904-12.756-12.756-20.608-28.602-23.556-45.157-3.005-16.81-.907-34.356 6.292-50.173.369-.964.936-1.871 1.729-2.637 2.92-2.919 7.653-2.919 10.602 0l38.353 38.353 21.374-5.839 5.811-21.374-38.354-38.325c-3.628-3.657-2.58-9.922 2.183-12.104 13.04-6.038 27.27-8.589 41.33-7.653 13.919.907 27.695 5.273 39.941 13.067 3.458 2.212 4.507 6.832 2.268 10.319-2.211 3.458-6.832 4.478-10.29 2.268-10.035-6.378-21.374-9.949-32.882-10.715-7.938-.539-15.96.283-23.669 2.466l33.137 33.137c2.155 2.154 2.721 5.272 1.73 7.937l-7.937 29.027c-.709 2.693-2.835 4.621-5.329 5.273l-29.594 8.079c-2.693.737-5.414-.085-7.257-1.927l-.028.028-33.138-33.165c-2.863 10.205-3.373 20.949-1.531 31.38 2.438 13.578 8.901 26.618 19.417 37.135 9.808 9.808 21.799 16.101 34.385 18.878 13.039 2.863 26.731 1.984 39.317-2.665 2.835-1.02 5.868-.255 7.88 1.757v-.028l31.21 31.21 12.388-12.388-33.818-33.846c-2.948-2.919-2.948-7.654 0-10.602 2.919-2.919 7.653-2.919 10.602 0l33.818 33.846 12.387-12.416-31.182-31.182c-2.239-2.239-2.778-5.527-1.616-8.249 3.657-10.091 4.904-20.806 3.77-31.323-1.134-10.546-4.62-20.835-10.488-30.048-2.211-3.487-1.19-8.107 2.296-10.318s8.107-1.191 10.318 2.296c7.143 11.225 11.395 23.726 12.756 36.482 1.219 11.338.17 22.847-3.175 33.817l27.921 27.921 75.034-75.005 8.391-25.172c.539-1.644 1.587-3.033 3.033-3.968l50.287-32.315c2.948-1.899 6.86-1.502 9.354.992l26.929 26.929c2.636 2.665 2.891 6.832.737 9.751l-32.06 49.862c-1.077 1.672-2.665 2.75-4.422 3.203l-24.718 8.249-27.553 27.553c-2.92 2.919-7.682 2.919-10.602 0-2.92-2.948-2.92-7.683 0-10.602l23.442-23.471-16.325-16.295c-47.395 47.396-94.791 94.791-142.187 142.186l16.328 16.328 94.735-94.735c2.92-2.92 7.654-2.92 10.602 0 2.92 2.92 2.92 7.682 0 10.602l-23.471 23.471 95.075 95.047c10.488-1.899 21.288-1.418 31.578 1.474 11.31 3.146 21.998 9.156 30.841 18 13.749 13.748 20.608 31.748 20.608 49.777 0 18-6.859 36.028-20.608 49.748-11.31 11.311-25.484 17.943-40.224 19.956-15.024 2.041-30.615-.765-44.193-8.447-3.6-2.041-4.847-6.604-2.806-10.205 2.012-3.601 6.604-4.848 10.176-2.807 10.687 6.038 22.961 8.25 34.81 6.633 11.565-1.559 22.705-6.803 31.635-15.732 10.8-10.8 16.214-24.973 16.214-39.147s-5.414-28.375-16.214-39.175c-7.03-7.001-15.393-11.736-24.236-14.202-9.213-2.58-18.936-2.721-28.233-.425-2.522.624-5.216-.113-7.086-1.956l-97.938-97.938-12.388 12.388 97.939 97.938c2.919 2.919 2.919 7.682 0 10.602-2.92 2.919-7.682 2.919-10.602 0l-97.938-97.938zm-1.332 162.2c2.551-3.231 7.229-3.799 10.488-1.247 3.232 2.579 3.771 7.257 1.219 10.489l-13.947 17.631 19.871 8.788c3.798 1.672 5.499 6.066 3.827 9.865-.34.794-.793 1.502-1.361 2.098l-19.559 24.718c-2.58 3.231-7.257 3.798-10.488 1.247-3.26-2.579-3.798-7.256-1.247-10.488l13.947-17.631-19.871-8.788c-4.422-1.956-5.896-7.626-2.834-11.481zm-27.042-15.165c-2.92 2.948-7.683 2.948-10.602 0-2.948-2.919-2.948-7.654 0-10.602l25.285-25.286c3.487-3.487 8.05-5.216 12.614-5.216s9.127 1.729 12.614 5.216l74.609 74.609c3.486 3.487 5.216 8.05 5.216 12.614s-1.73 9.128-5.216 12.614l-74.609 74.608c-3.486 3.488-8.05 5.217-12.614 5.217s-9.127-1.729-12.614-5.216l-74.609-74.608c-3.486-3.487-5.216-8.051-5.216-12.614 0-4.564 1.729-9.127 5.216-12.614l25.286-25.286c2.948-2.948 7.682-2.948 10.602 0 2.948 2.92 2.948 7.683 0 10.602l-25.285 25.286c-.539.539-.822 1.275-.822 2.013 0 .737.283 1.474.822 2.013l74.608 74.608c.539.539 1.276.822 2.013.822s1.474-.283 2.013-.822l74.608-74.608c.539-.539.822-1.276.822-2.013s-.283-1.474-.822-2.013l-74.608-74.608c-.539-.539-1.276-.822-2.013-.822s-1.474.283-2.013.822zm-84.587-82.233c2.948-2.92 7.682-2.92 10.63 0 2.919 2.948 2.919 7.682 0 10.602l-64.291 64.29c-2.948 2.948-7.682 2.948-10.63 0-2.919-2.919-2.919-7.653 0-10.602zm49.408 11.65-50.429-50.429-93.885 93.885c-2.239 2.239-3.373 5.188-3.373 8.164 0 2.948 1.134 5.924 3.373 8.164l34.102 34.102c2.239 2.239 5.187 3.373 8.164 3.373s5.925-1.134 8.164-3.373zm15.902-5.301h.028c3.203 3.231 7.483 4.819 11.735 4.819 4.28 0 8.533-1.587 11.765-4.819 3.231-3.231 4.819-7.484 4.819-11.765 0-4.252-1.587-8.532-4.819-11.735-20.354-20.353-40.706-40.706-61.06-61.059-3.231-3.231-7.483-4.847-11.735-4.847-4.28 0-8.532 1.616-11.764 4.847-3.231 3.231-4.847 7.483-4.847 11.764 0 4.252 1.616 8.532 4.847 11.736zm166.622-207.215 19.985-6.689 27.638-42.974-18.397-18.397-43.002 27.638-6.662 19.984zm22.735 266.374c3.316 3.289 7.653 4.961 11.99 4.961s8.674-1.644 11.991-4.961c3.316-3.316 4.96-7.653 4.96-11.99 0-4.338-1.644-8.703-4.96-11.991-3.316-3.316-7.653-4.989-11.991-4.989-4.337 0-8.674 1.672-11.99 4.989-3.317 3.288-4.961 7.653-4.961 11.991 0 4.337 1.644 8.674 4.961 11.99zm11.99 19.956c-8.192 0-16.356-3.118-22.592-9.355-6.237-6.236-9.383-14.428-9.383-22.592 0-8.193 3.146-16.356 9.383-22.621 6.236-6.236 14.4-9.354 22.592-9.354 8.164 0 16.356 3.118 22.592 9.354 6.236 6.265 9.355 14.428 9.355 22.621 0 8.164-3.119 16.356-9.355 22.592-6.236 6.237-14.428 9.355-22.592 9.355z"/></g></svg>