<?xml version="1.0" standalone="no"?>
<!DOCTYPE svg PUBLIC "-//W3C//DTD SVG 20010904//EN"
 "http://www.w3.org/TR/2001/REC-SVG-20010904/DTD/svg10.dtd">
<svg version="1.0" xmlns="http://www.w3.org/2000/svg"
 width="900.000000pt" height="500.000000pt" viewBox="0 0 900.000000 500.000000"
 preserveAspectRatio="xMidYMid meet">

<g transform="translate(0.000000,500.000000) scale(0.100000,-0.100000)"
fill="#e43649" stroke="none">
<path d="M4930 4595 l0 -64 -87 -3 -88 -3 -3 -36 c-3 -33 -7 -38 -56 -58 -178
-73 -361 -335 -476 -681 l-29 -85 -68 -26 c-89 -33 -123 -52 -149 -81 -68 -74
-14 -148 141 -194 33 -10 63 -20 67 -23 3 -3 16 -64 28 -136 125 -754 455
-1175 922 -1175 124 0 220 21 325 71 136 65 284 220 365 384 104 207 176 496
203 807 l7 76 66 12 c37 6 88 21 114 32 49 21 108 77 108 103 0 36 -60 73
-184 115 l-80 27 -17 84 c-56 284 -243 525 -526 681 -71 39 -73 41 -73 79 l0
38 -92 3 -93 3 -3 58 -3 57 -159 0 -160 0 0 -65z m862 -1327 l3 -103 58 59
c33 35 57 53 57 44 0 -45 -46 -278 -75 -379 -139 -483 -414 -744 -755 -715
-267 22 -467 209 -614 575 -47 117 -114 372 -105 400 3 7 19 1 41 -14 20 -14
39 -25 42 -25 4 0 6 59 6 130 l0 130 670 0 669 0 3 -102z"/>
<path d="M2945 3136 c-51 -23 -77 -60 -83 -116 l-5 -50 -152 0 c-83 0 -186 -3
-228 -6 l-77 -7 0 -132 c0 -112 2 -134 16 -139 20 -8 1142 -8 1172 0 21 6 22
10 22 135 0 91 -4 130 -12 136 -7 4 -110 10 -228 13 l-215 5 -5 41 c-7 47 -30
87 -63 109 -34 22 -106 28 -142 11z m110 -81 c41 -40 28 -93 -28 -114 -73 -28
-129 58 -75 116 29 31 72 30 103 -2z"/>
<path d="M2188 2804 c-53 -16 -94 -59 -103 -107 -3 -18 -4 -532 -3 -1144 l3
-1112 21 -28 c12 -15 36 -37 55 -48 33 -20 52 -20 839 -20 l805 0 45 25 c87
49 81 -52 78 1215 -3 1106 -3 1120 -23 1155 -29 49 -75 72 -155 78 l-69 5 -3
-99 -3 -99 -30 -6 c-16 -4 -302 -7 -635 -7 -333 0 -618 3 -635 7 l-30 6 -3 98
-3 97 -52 -1 c-29 0 -73 -7 -99 -15z m1620 -1301 l2 -1013 -805 0 -805 0 0
1008 c0 555 3 1012 6 1015 4 4 365 6 803 4 l796 -2 3 -1012z"/>
<path d="M2673 2262 l-111 -117 -32 38 c-17 20 -38 37 -45 37 -18 0 -75 -49
-75 -64 0 -7 27 -45 61 -84 57 -68 61 -71 81 -58 43 30 298 278 298 290 0 7
-15 26 -33 44 l-32 31 -112 -117z"/>
<path d="M2681 1880 c-56 -60 -109 -110 -116 -110 -8 0 -29 16 -46 35 -34 37
-38 37 -92 -8 l-29 -24 62 -76 c34 -42 65 -79 69 -81 7 -5 322 277 329 293 1
4 -15 23 -36 44 l-38 37 -103 -110z"/>
<path d="M2672 1468 l-113 -113 -32 38 c-18 20 -36 37 -42 37 -5 0 -27 -15
-48 -33 l-38 -32 68 -82 67 -81 119 111 c66 62 139 130 164 152 l44 40 -31 38
c-17 20 -35 37 -38 37 -4 0 -58 -51 -120 -112z"/>
<path d="M2671 1058 l-111 -113 -33 39 c-38 44 -56 44 -100 -2 l-26 -27 62
-77 c34 -42 66 -77 70 -77 4 -1 57 45 118 102 61 56 134 123 162 149 l52 46
-34 36 c-19 20 -38 36 -42 36 -3 0 -57 -51 -118 -112z"/>
<path d="M4240 2151 c-86 -19 -242 -72 -264 -90 -9 -7 -12 -224 -15 -850 l-3
-841 34 0 c18 0 506 0 1083 0 1138 0 1205 3 1413 56 231 58 349 153 404 327
29 92 36 302 14 438 -55 331 -213 591 -466 763 -160 110 -360 189 -536 212
l-50 6 -17 -44 c-37 -96 -211 -376 -418 -673 -138 -198 -174 -243 -186 -232
-4 5 -10 111 -11 237 l-4 228 43 63 c23 35 51 85 61 112 l19 50 -23 -7 c-13
-3 -60 -11 -105 -18 -86 -13 -200 -3 -310 25 -48 13 -53 12 -53 -2 0 -19 46
-98 92 -158 l32 -43 0 -239 c1 -132 -3 -243 -8 -248 -29 -29 -221 284 -473
772 l-88 170 -40 2 c-22 1 -78 -6 -125 -16z"/>
</g>
</svg>
