<?xml version="1.0" encoding="iso-8859-1"?>
<!-- Generator: Adobe Illustrator 19.0.0, SVG Export Plug-In . SVG Version: 6.00 Build 0)  -->
<svg version="1.1" id="Capa_1" xmlns="http://www.w3.org/2000/svg" xmlns:xlink="http://www.w3.org/1999/xlink" x="0px" y="0px"
	 viewBox="0 0 512.002 512.002" style="enable-background:new 0 0 512.002 512.002;" xml:space="preserve">
<path style="fill:#AEADB3;" d="M485.676,358.477c-21.599-21.601-53.101-31.8-86.7-23.101c-76.199-76.5-145.55-146.75-222.05-222.951
	c4.2-15.599,3.9-31.8,0-46.8c-4.2-15-12.001-28.799-23.401-40.199c-33.9-33.9-93.3-33.9-127.2,0c-35.099,35.099-35.099,92.1,0,127.2
	c22.5,22.5,56.1,31.5,87.001,23.401c76.199,76.5,145.55,146.75,222.05,222.949c-8.699,33.6,1.5,65.099,23.101,86.7
	c35.099,35.099,92.1,35.099,127.2,0S520.776,393.576,485.676,358.477z M118.126,128.326c-2.699,0.901-29.399,7.8-33.3,9
	c-5.099,1.5-10.499,0-14.399-3.9c-2.401-2.399-21.301-21.299-24.3-24.3c-3.9-3.9-5.402-9.3-3.9-14.399
	c0.599-2.999,8.699-33.6,8.699-33.6c0.901-2.701,2.401-5.099,4.2-6.899c1.8-1.501,3.9-3.001,6.599-3.602
	c3.001-0.599,33.3-8.699,33.6-8.699c5.101-1.5,10.201,0,14.101,3.6c2.401,2.701,21.299,21.601,24.3,24.6c3.9,3.6,5.4,9.3,3.9,14.399
	c-0.901,2.701-7.8,29.401-9,33.301c-0.601,2.399-1.8,4.499-3.602,6.299C123.225,126.226,120.826,127.725,118.126,128.326z
	 M451.776,462.876c-2.699,0.901-29.399,7.8-33.3,9c-5.099,1.5-10.499,0-14.399-3.9c-2.401-2.399-21.301-21.299-24.3-24.3
	c-3.9-3.9-5.402-9.3-3.9-14.399c0.599-2.999,8.699-33.6,8.699-33.6c0.901-2.701,2.1-4.801,3.9-6.601l0.3-0.298
	c1.8-1.501,3.9-2.701,6.599-3.602c3.001-0.599,33.3-8.699,33.6-8.699c5.101-1.5,10.201,0,14.101,3.6
	c2.401,2.701,21.299,21.601,24.3,24.6c3.9,3.6,5.4,9.3,3.9,14.399c-0.901,2.701-7.8,29.401-9,33.301
	c-0.601,2.399-1.8,4.499-3.602,6.299C456.876,460.776,454.477,462.276,451.776,462.876z"/>
<path style="fill:#8B8892;" d="M485.676,485.676c-35.099,35.099-92.1,35.099-127.2,0c-21.601-21.601-31.8-53.101-23.101-86.7
	c-76.5-76.199-145.85-146.45-222.05-222.949c-30.901,8.099-64.501-0.901-87.001-23.401c-35.099-35.099-35.099-92.1,0-127.2
	l28.801,28.801c-1.8,1.8-3.3,4.199-4.2,6.899c0,0-8.101,30.601-8.699,33.6c-1.501,5.099,0,10.499,3.9,14.399
	c2.999,3.001,21.899,21.901,24.3,24.3c3.9,3.9,9.3,5.4,14.399,3.9c3.9-1.199,30.601-8.099,33.3-9c2.701-0.601,5.099-2.1,6.899-4.2
	l263.752,264.652l-0.3,0.298c-1.8,1.8-2.999,3.9-3.9,6.601c0,0-8.101,30.601-8.699,33.6c-1.501,5.099,0,10.499,3.9,14.399
	c2.999,3.001,21.899,21.901,24.3,24.3c3.9,3.9,9.3,5.4,14.399,3.9c3.9-1.199,30.601-8.099,33.3-9c2.701-0.601,5.099-2.1,6.899-4.2
	L485.676,485.676z"/>
<path style="fill:#D9D9D9;" d="M511.146,77.374c-0.899-5.7-4.799-10.501-10.199-12.301s-11.1-0.3-15.3,3.6l-21.301,21.301
	c-11.1,11.4-30.899,11.4-42.299,0c-11.7-11.7-11.7-30.601,0-42.299l21.299-21.301c3.9-3.9,5.402-9.901,3.602-15.3
	c-1.802-5.4-6.601-9.3-12.301-10.201c-27.9-3.898-56.1,5.402-76.199,25.501c-22.8,22.5-31.5,55.8-23.401,86.999L113.356,335.011
	c-30.901-8.101-64.501,0.899-87.001,23.399C6.556,378.212-3.044,406.712,0.856,434.612c0.899,5.7,4.799,10.499,10.199,12.299
	s11.1,0.3,15.3-3.6l21.301-21.299c11.1-11.4,30.899-11.4,42.299,0c11.7,11.699,11.7,30.599,0,42.299l-21.299,21.301
	c-3.9,3.9-5.402,9.899-3.602,15.298c1.802,5.402,6.601,9.302,12.301,10.201c27.9,3.9,55.8-5.099,76.199-25.499
	c22.8-22.5,31.5-55.801,23.401-87.001l221.69-221.637c31.201,8.099,64.501-0.901,87.001-23.401
	C505.446,133.774,515.046,105.274,511.146,77.374z"/>
<path style="fill:#C8C6CD;" d="M485.646,153.573c-22.5,22.5-55.8,31.5-87.001,23.401L176.956,398.611
	c8.099,31.199-0.601,64.501-23.401,87.001c-20.4,20.4-48.3,29.399-76.199,25.499c-5.7-0.899-10.499-4.799-12.301-10.201
	c-1.8-5.4-0.298-11.398,3.602-15.298l21.299-21.301c11.7-11.7,11.7-30.601,0-42.299L422.047,89.973c11.4,11.4,31.199,11.4,42.299,0
	l21.301-21.301c4.2-3.9,9.901-5.4,15.3-3.6s9.3,6.601,10.199,12.301C515.046,105.274,505.446,133.774,485.646,153.573z"/>
<g>
</g>
<g>
</g>
<g>
</g>
<g>
</g>
<g>
</g>
<g>
</g>
<g>
</g>
<g>
</g>
<g>
</g>
<g>
</g>
<g>
</g>
<g>
</g>
<g>
</g>
<g>
</g>
<g>
</g>
</svg>
