<?xml version="1.0" encoding="utf-8"?>
<!-- Generator: Adobe Illustrator 24.0.3, SVG Export Plug-In . SVG Version: 6.00 Build 0)  -->
<svg version="1.1" id="Layer_1" xmlns="http://www.w3.org/2000/svg" xmlns:xlink="http://www.w3.org/1999/xlink" x="0px" y="0px"
	 viewBox="0 0 180 180" style="enable-background:new 0 0 180 180;" xml:space="preserve">
<style type="text/css">
	.st0{fill:#111111;}
	.st1{enable-background:new    ;}
</style>
<g>
	<path class="st0" d="M83.4,81.5h-35c-1.1,0-2,0.9-2,2v47c0,1.1,0.9,2,2,2h35c1.1,0,2-0.9,2-2v-47C85.4,82.4,84.5,81.5,83.4,81.5z
		 M54.9,127.5c-1.9,0-3.5-1.6-3.5-3.5s1.6-3.5,3.5-3.5s3.5,1.6,3.5,3.5C58.5,125.9,56.9,127.5,54.9,127.5
		C55,127.6,54.9,127.6,54.9,127.5L54.9,127.5z M54.9,118.5c-1.9,0-3.5-1.6-3.5-3.5s1.6-3.5,3.5-3.5s3.5,1.6,3.5,3.5
		C58.5,116.9,56.9,118.5,54.9,118.5C55,118.6,54.9,118.6,54.9,118.5L54.9,118.5z M54.9,109.5c-1.9,0-3.5-1.6-3.5-3.5
		s1.6-3.5,3.5-3.5s3.5,1.6,3.5,3.5C58.5,107.9,56.9,109.5,54.9,109.5C55,109.6,54.9,109.6,54.9,109.5L54.9,109.5z M65.9,127.5
		c-1.9,0-3.5-1.6-3.5-3.5s1.6-3.5,3.5-3.5c1.9,0,3.5,1.6,3.5,3.5C69.5,125.9,67.9,127.5,65.9,127.5C66,127.6,65.9,127.6,65.9,127.5
		L65.9,127.5z M65.9,118.5c-1.9,0-3.5-1.6-3.5-3.5s1.6-3.5,3.5-3.5c1.9,0,3.5,1.6,3.5,3.5C69.5,116.9,67.9,118.5,65.9,118.5
		C66,118.6,65.9,118.6,65.9,118.5L65.9,118.5z M65.9,109.5c-1.9,0-3.5-1.6-3.5-3.5s1.6-3.5,3.5-3.5c1.9,0,3.5,1.6,3.5,3.5
		C69.5,107.9,67.9,109.5,65.9,109.5C66,109.6,65.9,109.6,65.9,109.5L65.9,109.5z M80.4,124c0,1.9-1.6,3.5-3.5,3.5s-3.5-1.6-3.5-3.5
		v-9c0-1.9,1.6-3.5,3.5-3.5s3.5,1.6,3.5,3.5V124z M76.9,109.5c-1.9,0-3.5-1.6-3.5-3.5s1.6-3.5,3.5-3.5s3.5,1.6,3.5,3.5
		C80.5,107.9,78.9,109.5,76.9,109.5C77,109.6,76.9,109.6,76.9,109.5L76.9,109.5z M80.4,96.5c0,1.1-0.9,2-2,2h-25c-1.1,0-2-0.9-2-2
		v-8c0-1.1,0.9-2,2-2h25c1.1,0,2,0.9,2,2V96.5z"/>
	<g>
		<g>
			<path class="st0" d="M129.6,88.5H90.4c-1.1,0-2-0.9-2-2s0.9-2,2-2h39.1v-33H53.4v25c0,1.1-0.9,2-2,2s-2-0.9-2-2v-25
				c0-2.2,1.8-4,4-4h76.1c2.2,0,4,1.8,4,4v33C133.6,86.7,131.8,88.5,129.6,88.5z"/>
		</g>
		<g>
			<g class="st1">
				<path class="st0" d="M73,76.8l-4.5-6.1l-1.6,1.6v3c0,2.1-1,3.2-2.9,3.2c-2,0-3.1-1.2-3.1-3.2V60.7c0-2.1,1.1-3.2,3-3.2
					c1.9,0,3,1.2,3,3.2v4.8h0.4l6.3-6.9c0.7-0.8,1.4-1.1,2.2-1.1c1.5,0,2.7,1.1,2.7,2.6c0,0.7-0.3,1.3-1,2.1L73,66.9l4.7,6.2
					c0.9,1.2,1.1,1.8,1.1,2.6c0,1.7-1.2,2.8-2.9,2.8C74.8,78.6,73.9,78,73,76.8z"/>
			</g>
			<g class="st1">
				<path class="st0" d="M94.3,60.4c0.6-2.1,1.4-3,3-3c1.7,0,2.9,1.1,2.9,2.6c0,0.6-0.2,1.5-0.4,2.3L96,74.3c-1,3-2.5,4.3-5.2,4.3
					c-2.7,0-4.3-1.3-5.2-4.3l-3.8-11.9c-0.3-0.9-0.5-1.7-0.5-2.3c0-1.6,1.2-2.7,2.9-2.7c1.5,0,2.6,0.9,3.1,3l3.4,11.8h0.3L94.3,60.4
					z"/>
			</g>
			<g class="st1">
				<path class="st0" d="M102.9,76.1c0-0.6,0.2-1.3,0.6-2.6l3.9-11.8c1-3.1,2.5-4.3,5.2-4.3c2.7,0,4.1,1.2,5.1,4.3l3.9,11.8
					c0.3,1.1,0.5,1.8,0.5,2.4c0,1.6-1.1,2.6-2.9,2.6c-1.6,0-2.5-0.9-3.1-2.9l-0.4-1.4h-6.7l-0.4,1.4c-0.6,2.1-1.4,2.9-3,2.9
					C104,78.6,102.9,77.6,102.9,76.1z M114.6,70l-2-7.3h-0.3l-2,7.3H114.6z"/>
			</g>
		</g>
	</g>
</g>
</svg>
