<svg id="Layer_1" data-name="Layer 1" xmlns="http://www.w3.org/2000/svg" viewBox="0 0 2360.59 541.6"><defs><style>.cls-1{fill:#fff;}</style></defs><path class="cls-1" d="M1888,76.53c-.07,1.45-.2,2.9-.2,4.36q0,28.06,0,56.14c0,5-.1,5-5.11,5q-57.17,0-114.32,0l-3.58,0a1.34,1.34,0,0,0-1.45,1.5c0,1.32,0,2.65,0,4q0,153.7,0,307.42c0,1.69.7,3.79-.44,5s-3.28.47-5,.47q-32.07,0-64.13,0c-1.06,0-2.12,0-3.19,0a1.17,1.17,0,0,1-1.3-1.17c0-1.32-.07-2.65-.07-4V147.06c0-1.2,0-2.39,0-3.58a1.38,1.38,0,0,0-1.55-1.41l-2.79,0-411.47,0-14.73,0-322.24,0-339.37,0-338.18.05q-78.87,0-157.73,0c-6,0-5.19-.73-5.19,5.37q0,199.7,0,399.4c0,1.56-.66,3.47.39,4.6s3,.46,4.58.46q1101.56,0,2203.12,0c5.65,0,4.82.76,4.82-4.82q0-154.89,0-309.8c0-6.47-.83-5.5,5.42-5.51q31.66,0,63.33,0c1.45,0,2.91-.1,4.37-.15V575.12a2.21,2.21,0,0,0-.67,2.46c0,.52,0,1,0,1.56a19.46,19.46,0,0,1-1.19,5.8Q2372,606,2350.87,614.29c-4.09,1.6-8.42,2.19-12.67,3.1a8.24,8.24,0,0,0-3.13.09l-2.42-.05c-1.33,0-2.65-.09-4-.09H76.31c-1.32,0-2.65,0-4,.07l-2.41,0-2.35-.05H66c-1.29-.28-2.58-.59-3.88-.82-13.47-2.41-24.06-9.21-31.52-20.74a52.45,52.45,0,0,1-5.85-12.11,54.2,54.2,0,0,1-1.85-10.92c0-2.78-.1-5.56-.1-8.33q0-217.55,0-435.09c0-3.18.17-6.36.24-9.54,0-.66-.08-1.32-.13-2a38.44,38.44,0,0,1,4.34-13.94c6.81-12.42,17-20.83,30.6-24.87,2.9-.87,6-1.25,8.93-1.85h5.48c2.12,0,4.25.09,6.37.09H1510.66a28.08,28.08,0,0,0,3.18-.07,4.43,4.43,0,0,0,1.35-.72Z" transform="translate(-21.39 -76.53)"/><path class="cls-1" d="M72.33,617.41c1.33,0,2.66-.07,4-.07H2328.67c1.33,0,2.65,0,4,.08a4.25,4.25,0,0,0-.06.71H72.38A5.81,5.81,0,0,0,72.33,617.41Z" transform="translate(-21.39 -76.53)"/><path class="cls-1" d="M22.89,117.88c.05.65.14,1.31.13,2-.07,3.18-.23,6.36-.24,9.54q0,217.55,0,435.09c0,2.77.06,5.55.1,8.33-.65-.42-.56-1.5-1.49-1.67V120.33C22.53,119.91,22.07,118.5,22.89,117.88Z" transform="translate(-21.39 -76.53)"/><path class="cls-1" d="M1143.13,77.32H770.28v-.79h372.85Z" transform="translate(-21.39 -76.53)"/><path class="cls-1" d="M770.28,76.53v.79H398.22c0-.27,0-.53,0-.79Z" transform="translate(-21.39 -76.53)"/><path class="cls-1" d="M1143.13,77.32v-.79h372.06a4.43,4.43,0,0,1-1.35.72,28.08,28.08,0,0,1-3.18.07Z" transform="translate(-21.39 -76.53)"/><path class="cls-1" d="M398.23,76.53c0,.26,0,.52,0,.79H78.61c-2.12,0-4.25-.06-6.37-.09a3.34,3.34,0,0,0,.14-.7Z" transform="translate(-21.39 -76.53)"/><path class="cls-1" d="M72.38,76.53a3.34,3.34,0,0,1-.14.7H69.13a1.9,1.9,0,0,0,.06-.71Z" transform="translate(-21.39 -76.53)"/><path class="cls-1" d="M2338.2,617.39c0,.25,0,.49,0,.74H2335l.09-.65A8.24,8.24,0,0,1,2338.2,617.39Z" transform="translate(-21.39 -76.53)"/><path class="cls-1" d="M69.19,76.53a1.9,1.9,0,0,1-.06.71l-2.37,0a4,4,0,0,0,0-.69Z" transform="translate(-21.39 -76.53)"/><path class="cls-1" d="M2381.32,577.58a2.21,2.21,0,0,1,.67-2.46v2.39A3,3,0,0,1,2381.32,577.58Z" transform="translate(-21.39 -76.53)"/><path class="cls-1" d="M67.57,617.4l2.35.05a5.23,5.23,0,0,1,.07.68H67.6A4.46,4.46,0,0,0,67.57,617.4Z" transform="translate(-21.39 -76.53)"/><path class="cls-1" d="M70,618.13a5.23,5.23,0,0,0-.07-.68l2.41,0a5.81,5.81,0,0,1,0,.72Z" transform="translate(-21.39 -76.53)"/><path class="cls-1" d="M2335.07,617.48l-.09.65h-2.39a4.25,4.25,0,0,1,.06-.71Z" transform="translate(-21.39 -76.53)"/><path class="cls-1" d="M2381.32,577.58a3,3,0,0,0,.67-.07v1.59a5.32,5.32,0,0,1-.69,0C2381.31,578.62,2381.32,578.1,2381.32,577.58Z" transform="translate(-21.39 -76.53)"/><path class="cls-1" d="M67.57,617.4a4.46,4.46,0,0,1,0,.73H66c0-.25,0-.49,0-.73Z" transform="translate(-21.39 -76.53)"/><path class="cls-1" d="M483.42,305.57c2-3.17,3.68-5.83,5.34-8.51,12.5-20.16,25-40.3,37.44-60.52a4.77,4.77,0,0,1,4.72-2.64c17.92.08,35.85,0,53.77,0h39a23.62,23.62,0,0,0,2.38,0,3.18,3.18,0,0,1,3.22,1.81c2.68,4.42,5.41,8.81,8.13,13.21l65,105.19q24.65,39.92,49.27,79.85,7.92,12.84,15.78,25.68c-.59,1.31-1.66.75-2.47.76q-19.92,0-39.83,0H684.54c-.93,0-1.86,0-2.79,0a2.3,2.3,0,0,1-2.26-1.26c-1.64-2.73-3.34-5.42-5-8.13l-37.72-61.75Q614.39,352.69,592,316c-4-6.56-8-13.15-12-19.68-.6-1-1-2.19-2.29-2.83-2.75,4.51-5.52,9-8.27,13.55L532,369q-25.54,42.17-51.1,84.31c-1.17,1.93-2.46,3.79-3.52,5.77a2.38,2.38,0,0,1-2.55,1.42c-.66,0-1.32,0-2,0q-40.23,0-80.46,0c-1.35,0-3.26.85-4-.72-.52-1.13.89-2.35,1.56-3.44q23.3-38,46.65-75.86c.62-1,1.18-2.06,1.84-3.21-1.82-3.05-3.62-6.13-5.48-9.18Q411,332,389,296.08c-.21-.34-.4-.69-.62-1-1.06-1.6-1.52-1.62-2.46-.08q-2.9,4.75-5.77,9.52-22.73,37.59-45.45,75.19-23.31,38.63-46.62,77.25c-2.61,4.32-1.43,3.49-6.16,3.5q-39.64,0-79.27,0h-3.45c-.68-.84-.13-1.34.19-1.87q12.21-20,24.43-40.05,17.73-29,35.47-58,17.83-29.16,35.66-58.34,18.54-30.36,37.07-60.74c1.18-1.92,2.45-3.79,3.5-5.77a3,3,0,0,1,3.21-1.75c.79.07,1.59,0,2.39,0h92c4.54,0,4.56,0,6.93,3.73l41.18,64.75C481.83,303.31,482.46,304.16,483.42,305.57Z" transform="translate(-21.39 -76.53)"/><path class="cls-1" d="M2047.55,460.45q-53.57,0-107.13,0a65.66,65.66,0,0,1-18.87-2.46c-12.64-3.73-21.81-11.67-28-23.22a43.64,43.64,0,0,1-4.94-15,110.76,110.76,0,0,1-1-14.65V285.32c0-1.86,0-3.72.11-5.58.41-13.23,6-23.92,15.79-32.66,9-8,19.5-12.09,31.39-12.9q3.38-.23,6.77-.23h212.67a68.5,68.5,0,0,1,18.91,2.21c13.53,3.84,23.26,12.25,29.6,24.72a50.29,50.29,0,0,1,5.46,23.36q-.09,64.11,0,128.21a46,46,0,0,1-5,21.44,49.36,49.36,0,0,1-10.83,13.64,47.84,47.84,0,0,1-26.65,12.25,78.49,78.49,0,0,1-10.71.68Zm.24-63.86q41.22,0,82.43,0c4.77,0,4.48.65,4.48-4.47q0-45,0-90c0-4.85.45-4.47-4.51-4.47H1965.32c-4.74,0-4.21-.55-4.21,4.26q0,45.19,0,90.38c0,.66,0,1.32,0,2,.06,2.11.18,2.24,2.25,2.29,1.06,0,2.13,0,3.19,0Z" transform="translate(-21.39 -76.53)"/><path class="cls-1" d="M1405.75,460.45q-53.37,0-106.75,0a66.55,66.55,0,0,1-18.09-2.29c-12.29-3.43-21.36-10.89-27.61-21.88a44.76,44.76,0,0,1-6-18.37c-.38-4.11-.6-8.2-.6-12.31q0-83.43,0-166.85c0-5.44-.77-4.81,4.9-4.82q31.66,0,63.34,0c1.06,0,2.12,0,3.18,0,1.35.05,1.69.37,1.74,1.6s0,2.39,0,3.58q0,76.26,0,152.53c0,5.62-.72,4.9,4.79,4.91h162.52c.8,0,1.59,0,2.39,0,2.53,0,2.53,0,2.58-2.75,0-.93,0-1.86,0-2.79q0-76.07,0-152.12c0-5.49-.7-5,4.79-5H1562c3.67,0,3.46,0,3.46,3.48V412.24a48.06,48.06,0,0,1-2,14.53,46.43,46.43,0,0,1-13,20.11c-9.43,8.9-20.79,12.95-33.55,13.52-1.72.07-3.45.05-5.18.05Z" transform="translate(-21.39 -76.53)"/><path class="cls-1" d="M805.93,460.45c4.27-7,8.1-13.35,12-19.68q22.92-37.69,45.85-75.38,20.35-33.45,40.77-66.85,18.62-30.56,37.19-61.12c2.52-4.14,1.57-3.46,6.21-3.46q49.38,0,98.76,0c4.35,0,3.71-.6,6.21,3.51q27.7,45.5,55.43,91,20.39,33.42,40.82,66.82,19.16,31.37,38.28,62.77c.39.64.67,1.35,1,2.07a8.83,8.83,0,0,1-3.76.35q-40,0-80.05,0c-4.7,0-3.39.7-5.93-3.26q-18.24-28.44-36.32-57a1.9,1.9,0,0,1-.22-.33c-1-2.84-3.18-3.25-6-3.24q-53.57.13-107.13.06h-4.29c-.36-1.43.57-2.21,1.08-3q11.82-19.33,23.74-38.6c1.32-2.14,2.67-4.27,3.94-6.44a2.84,2.84,0,0,1,2.93-1.57c.93.07,1.86,0,2.79,0q23.89,0,47.79,0c1,0,2.08.29,3.08-.26.34-1.24-.55-2-1-2.9q-11.4-19.33-22.9-38.63-3.55-6-7.11-11.95c-1.71-2.89-1.8-2.9-3.43-.2q-4,6.63-8,13.27-29.28,48.25-58.56,96.5-16.69,27.52-33.33,55.08c-.27.46-.55.91-.82,1.36a2,2,0,0,1-1.93,1.15c-.79,0-1.59,0-2.38,0H805.93Z" transform="translate(-21.39 -76.53)"/></svg>