<svg xmlns="http://www.w3.org/2000/svg" width="19.159" height="20" viewBox="0 0 19.159 20">
  <path id="icons8-customer" d="M12.1,2.209a1.032,1.032,0,0,0-.364.089,5.525,5.525,0,0,0-3.3,3.85,4.447,4.447,0,0,0,3.68,5.392,4.258,4.258,0,0,0,4.721-4.232,3.55,3.55,0,0,0-3.193-3.723l-.6-.9A1.066,1.066,0,0,0,12.1,2.209Zm.48,12.549c-3.2,0-9.58,1.6-9.58,4.789v1.6a1.065,1.065,0,0,0,1.064,1.064h17.03a1.065,1.065,0,0,0,1.064-1.064v-1.6C22.159,16.363,15.777,14.758,12.58,14.758Z" transform="translate(-3 -2.207)" fill="#bfbfbf"/>
</svg>
