<svg xmlns="http://www.w3.org/2000/svg" width="20.325" height="20.002" viewBox="0 0 20.325 20.002">
  <path id="icons8-handcart" d="M16.471,2.006A1.974,1.974,0,0,0,15.7,2.1L9.98,3.857A2,2,0,0,0,8.7,6.332l1.348,4.561a1.975,1.975,0,0,0,.992,1.174,2.009,2.009,0,0,0,.91.221,1.9,1.9,0,0,0,.6-.1l5.727-1.764a2,2,0,0,0,1.281-2.475L18.215,3.395a1.982,1.982,0,0,0-.994-1.176A2.012,2.012,0,0,0,16.471,2.006ZM4.814,3.109a1,1,0,0,0-.27.047L2.41,3.84a1,1,0,1,0,.609,1.9L4.2,5.367,7.2,14.9a3.016,3.016,0,0,0,3.764,1.959l10.348-3.254a1,1,0,1,0-.6-1.908l-10.35,3.254s0,0,0,0A.984.984,0,0,1,9.109,14.3L5.8,3.809A1,1,0,0,0,4.814,3.109Zm9.924,1.457a1,1,0,0,1,.225,1.947l-1.705.561a1,1,0,0,1-.613-1.9l1.7-.557A1,1,0,0,1,14.738,4.566ZM11,18a2,2,0,1,0,2,2A2,2,0,0,0,11,18Z" transform="translate(-1.688 -1.999)" fill="#bfbfbf"/>
</svg>
